<svg xmlns="http://www.w3.org/2000/svg" viewBox="0 0 64 80" x="0px" y="0px"><g><path d="M16.447,56.105,19,57.382V54H13v3.382l2.553-1.277a1,1,0,0,1,.894,0Z"/><path d="M21,59a1,1,0,0,1-1,1H54V58H21Z"/><polygon points="25.236 14 22.764 14 21.673 18 26.327 18 25.236 14"/><rect x="21" y="54" width="33" height="2"/><rect x="56" y="17" width="2" height="2"/><path d="M16,58.118,12.447,59.9A1,1,0,0,1,11,59V58H6V56h5V54H7a3,3,0,0,0,0,6H20a1,1,0,0,1-.447-.1Z"/><path d="M8,52V4.1A5.009,5.009,0,0,0,4,9v3.487A4.08,4.08,0,0,1,6,12v2a1.882,1.882,0,0,0-2,2V38.487A4.08,4.08,0,0,1,6,38v2a1.882,1.882,0,0,0-2,2v1.487A4.08,4.08,0,0,1,6,43v2a1.882,1.882,0,0,0-2,2v6.026A4.948,4.948,0,0,1,7,52Z"/><rect x="21" y="32" width="22" height="2"/><path d="M16,26H48V10H16ZM37,12h8a1,1,0,0,1,.819,1.573L39.92,22H46v2H38a1,1,0,0,1-.819-1.573L43.08,14H37Zm-6,5h5v2H31Zm-9.965-4.263A1,1,0,0,1,22,12h4a1,1,0,0,1,.965.737l3,11-1.93.526L26.873,20H21.127l-1.162,4.263-1.93-.526Z"/><rect x="56" y="25" width="4" height="2"/><rect x="56" y="33" width="2" height="2"/><rect x="56" y="9" width="4" height="2"/><path d="M10,52H54V4H10Zm39-3H15V47H49Zm0-4H15V43H49Zm-4-9H19V30H45Zm2,3v2H43V39Zm-6,0v2H23V39ZM21,39v2H17V39ZM14,8H50V28H14Z"/></g><text x="0" y="79" fill="#000000" font-size="5px" font-weight="bold" font-family="'Helvetica Neue', Helvetica, Arial-Unicode, Arial, Sans-serif">Created by Smalllike</text><text x="0" y="84" fill="#000000" font-size="5px" font-weight="bold" font-family="'Helvetica Neue', Helvetica, Arial-Unicode, Arial, Sans-serif">from the Noun Project</text></svg>